<?xml version="1.0" standalone="no"?>
<!DOCTYPE svg PUBLIC "-//W3C//DTD SVG 20010904//EN"
 "http://www.w3.org/TR/2001/REC-SVG-20010904/DTD/svg10.dtd">
<svg version="1.0" xmlns="http://www.w3.org/2000/svg"
 width="294.000000pt" height="50.000000pt" viewBox="0 0 294.000000 50.000000"
 preserveAspectRatio="xMidYMid meet">
<metadata>
Created by potrace 1.13, written by Peter Selinger 2001-2015
</metadata>
<g transform="translate(0.000000,50.000000) scale(0.100000,-0.100000)"
fill="#000000" stroke="none">
<path d="M0 250 l0 -250 1470 0 1470 0 0 250 0 250 -1470 0 -1470 0 0 -250z
m509 206 c12 -14 11 -60 -2 -72 -4 -4 -7 8 -7 27 0 31 -5 25 -51 -61 -28 -53
-45 -96 -39 -98 6 -2 17 -17 25 -33 9 -16 19 -28 23 -26 4 1 14 -4 22 -11 8
-7 23 -18 33 -25 14 -10 -18 -12 -163 -13 l-179 -1 -30 70 c-61 146 -15 196
194 212 l60 5 -50 -14 c-70 -19 -99 -31 -114 -50 -12 -14 -9 -21 24 -51 20
-20 51 -43 68 -52 29 -15 32 -15 45 3 22 31 112 188 112 196 0 13 17 9 29 -6z
m289 -130 c40 -13 49 -123 13 -159 -18 -18 -31 -21 -98 -19 -94 3 -113 18
-113 91 0 81 26 98 136 95 23 -1 51 -5 62 -8z m269 -12 c18 -25 16 -89 -3
-109 -23 -23 -137 -18 -142 7 -3 14 6 17 50 20 50 3 53 5 56 31 3 27 3 27 -58
27 -61 0 -61 0 -60 -27 1 -16 2 -49 1 -75 -1 -38 -4 -46 -18 -43 -10 2 -21 4
-25 4 -9 1 -11 175 -3 183 3 2 46 3 97 2 75 -1 94 -5 105 -20z m248 -8 c0 -21
-6 -31 -22 -37 -17 -6 -23 -5 -23 6 0 22 -105 21 -114 0 -4 -12 4 -15 39 -15
37 0 45 -3 45 -18 0 -26 -65 -30 -79 -5 -8 15 -9 13 -7 -12 l3 -30 79 0 c73 0
79 -2 82 -22 3 -19 -2 -21 -55 -25 -32 -1 -82 -2 -110 0 l-53 3 0 89 c0 50 4
90 10 92 5 2 54 3 107 3 l98 -1 0 -28z m123 19 c5 -5 25 -38 43 -72 18 -35 36
-63 39 -63 4 0 6 32 6 72 -1 67 1 71 22 75 22 3 23 2 20 -94 l-3 -96 -40 -1
c-39 0 -41 2 -80 72 -22 39 -43 72 -47 72 -4 0 -8 -33 -10 -72 -3 -65 -5 -73
-23 -73 -18 0 -20 8 -23 89 -2 50 1 92 7 95 15 10 79 7 89 -4z m409 -18 c1
-22 -4 -30 -23 -37 -33 -13 -34 -13 -34 5 0 9 -9 15 -25 15 -23 0 -24 -3 -27
-72 -3 -71 -4 -73 -30 -76 l-28 -3 0 75 0 76 -39 0 c-37 0 -51 11 -51 41 0 6
52 8 127 7 l128 -3 2 -28z m211 17 c43 -30 20 -124 -31 -124 -18 0 -18 -1 -3
-25 21 -33 21 -35 -13 -35 -22 0 -34 9 -57 43 l-29 42 -5 -40 c-4 -35 -9 -40
-32 -43 l-28 -3 0 100 0 101 88 0 c63 0 94 -4 110 -16z m255 -77 c26 -50 47
-95 47 -99 0 -5 -35 -8 -78 -8 -74 0 -79 1 -90 25 -12 25 -11 25 38 25 l50 0
-26 52 -27 52 -38 -77 c-36 -70 -42 -77 -69 -77 -17 0 -30 3 -30 6 0 7 54 113
83 162 16 27 24 32 55 32 36 0 38 -2 85 -93z m202 13 l40 -75 3 78 c3 74 4 77
27 77 25 0 25 0 25 -101 l0 -100 -47 3 -47 3 -40 75 -41 75 -3 -77 c-3 -75 -4
-78 -27 -78 -25 0 -25 0 -25 101 l0 100 48 -3 47 -3 40 -75z m343 53 c3 -17
-4 -26 -24 -35 -22 -10 -28 -10 -32 0 -4 14 -112 17 -112 3 0 -5 28 -12 63
-16 78 -9 107 -26 107 -65 0 -47 -30 -60 -137 -60 l-93 0 0 30 0 30 86 0 c96
0 106 15 16 25 -87 9 -102 18 -102 59 0 49 19 56 130 53 90 -2 95 -3 98 -24z"/>
</g>
</svg>
