<?xml version="1.0" encoding="UTF-8" standalone="no"?>
<!-- Created with Inkscape (http://www.inkscape.org/) -->

<svg
   xmlns:dc="http://purl.org/dc/elements/1.1/"
   xmlns:cc="http://creativecommons.org/ns#"
   xmlns:rdf="http://www.w3.org/1999/02/22-rdf-syntax-ns#"
   xmlns:svg="http://www.w3.org/2000/svg"
   xmlns="http://www.w3.org/2000/svg"
   xmlns:sodipodi="http://sodipodi.sourceforge.net/DTD/sodipodi-0.dtd"
   xmlns:inkscape="http://www.inkscape.org/namespaces/inkscape"
   version="1.1"
   id="svg3700"
   width="2589"
   height="369"
   viewBox="0 0 2589 369"
   sodipodi:docname="Logo OPENTRANS.svg"
   inkscape:version="0.92.1 r15371"
   enable-background="new">
  <metadata
     id="metadata3706">
    <rdf:RDF>
      <cc:Work
         rdf:about="">
        <dc:format>image/svg+xml</dc:format>
        <dc:type
           rdf:resource="http://purl.org/dc/dcmitype/StillImage" />
        <dc:title />
      </cc:Work>
    </rdf:RDF>
  </metadata>
  <defs
     id="defs3704" />
  <sodipodi:namedview
     pagecolor="#ffffff"
     bordercolor="#666666"
     borderopacity="1"
     objecttolerance="10"
     gridtolerance="10"
     guidetolerance="10"
     inkscape:pageopacity="0"
     inkscape:pageshadow="2"
     inkscape:window-width="1920"
     inkscape:window-height="1017"
     id="namedview3702"
     showgrid="false"
     inkscape:zoom="0.8775589"
     inkscape:cx="573.27091"
     inkscape:cy="409.28906"
     inkscape:window-x="1912"
     inkscape:window-y="-8"
     inkscape:window-maximized="1"
     inkscape:current-layer="layer1" />
  <g
     inkscape:groupmode="layer"
     id="layer3"
     inkscape:label="back"
     style="display:inline"
     sodipodi:insensitive="true">
    <rect
       style="fill:#800000;fill-opacity:1;stroke:#c83737"
       id="rect3691"
       width="1907.5642"
       height="464.92606"
       x="-53.557659"
       y="-64.019371"
       ry="0" />
    <rect
       style="fill:#800000;fill-opacity:1;stroke:#c83737"
       id="rect3693"
       width="883.13159"
       height="505.94894"
       x="1745.7517"
       y="-90.228432" />
  </g>
  <g
     inkscape:groupmode="layer"
     id="layer2"
     inkscape:label="Layer 2"
     style="display:inline">
    <path
       style="fill:#aaaaaa;fill-opacity:1"
       d="m 63.338509,323.54049 c -2.13266,-4.5375 -7.01935,-14.775 -10.8593,-22.75 -17.6879,-36.73511 -31.48125,-73.28996 -36.22396,-96 -2.70888,-12.97126 -3.6594,-31.03836 -2.14268,-40.72732 1.641,-10.48287 4.52716,-17.30181 11.02309,-26.04349 8.79512,-11.83574 17.30064,-19.29947 31.59718,-27.72699 20.85112,-12.291327 61.205061,-24.305937 100.499991,-29.921957 27.22179,-3.89052 59.71902,-7.16617 63.62737,-6.41349 0.99452,0.19153 -6.05229,1.69486 -15.65958,3.34074 l -17.46779,2.99251 -0.31996,2.78661 c -0.28234,2.45906 -0.0473,2.72445 2,2.25781 1.27598,-0.29083 10.41996,-1.90528 20.31996,-3.58765 22.15355,-3.76469 21.5,-3.56962 21.5,-6.41717 0,-2.83524 1.62365,-3.53078 8.33179,-3.5692 2.84251,-0.0163 11.46821,-0.68193 19.16821,-1.47923 18.31248,-1.89616 21.5,-1.89485 21.5,0.009 0,0.89117 -0.91325,1.49688 -2.25,1.49231 -8.2927,-0.0283 -63.01179,13.08465 -84.96243,20.36058 -50.48686,16.734767 -71.46371,29.897437 -75.19727,47.185207 -0.41492,1.9212 0.0795,5.41988 1.34495,9.51683 2.47039,7.99819 9.08009,16.31151 22.39233,28.16383 13.51268,12.03079 48.90716,35.11349 83.92201,54.7302 l 14.74959,8.26331 -2.63271,3.14386 c -1.448,1.72913 -5.25741,5.95637 -8.46537,9.39387 l -5.83265,6.25 h -6.03423 -6.03422 v 14.5 14.5 h -10 -10 v -15.34501 c 0,-19.65044 0.89875,-18.65499 -16.84277,-18.65499 -17.89202,0 -18.11554,0.14984 -26.68736,17.88995 l -6.46987,13.38995 v 14.36005 14.36005 h 9.5 9.5 v 3.03984 c 0,4.37337 3.56151,10.72207 7.29034,12.99565 l 3.20966,1.95703 -51.75838,0.004 -51.758371,0.004 -3.87757,-8.25 z m 82.832861,-59.19113 c -0.0338,-0.58238 -7.02806,-6.38548 -15.5428,-12.89579 -12.73252,-9.73518 -15.74009,-11.62218 -16.93855,-10.62755 -0.80145,0.66515 -1.43955,1.71676 -1.418,2.33691 0.0216,0.62016 7.09629,6.66578 15.72163,13.43471 14.24214,11.17685 15.79984,12.14659 16.96081,10.55887 0.7031,-0.96155 1.25071,-2.22477 1.21691,-2.80715 z m -51.257281,-41.9211 c -6.43182,-6.43182 -12.47989,-14.36259 -15.56549,-20.41086 -2.33668,-4.58027 -2.86252,-4.86854 -5.43032,-2.97691 -1.55103,1.1426 -1.29375,1.96279 2.99443,9.54596 2.91897,5.16189 7.4999,11.15055 12.12581,15.85211 l 7.43456,7.55614 2.00186,-2.00186 2.001861,-2.00187 z m -24.49538,-40.63777 c 0.669,0 0.78099,-2.72596 0.32405,-7.88794 -0.72825,-8.22696 0.27087,-15.73663 3.23824,-24.33935 1.77441,-5.14421 1.75825,-5.21533 -1.40521,-6.18637 -1.88598,-0.57891 -2.34824,-0.0604 -3.67843,4.12577 -3.46151,10.89362 -4.54961,22.29855 -3.014,31.59134 0.45583,2.75848 1.02477,3.6514 2.07078,3.25 0.79325,-0.3044 1.90231,-0.55345 2.46457,-0.55345 z m 20.2292,-57.78213 c 3.34671,-3.18017 10.234651,-8.24267 15.306511,-11.25 5.07188,-3.00733 9.23438,-5.71936 9.25,-6.02674 0.0156,-0.30738 -0.5928,-1.40843 -1.35206,-2.44677 -1.31925,-1.80419 -1.74445,-1.66855 -9.58864,3.05887 -8.368551,5.04343 -20.519981,14.60531 -22.382891,17.61295 -0.74057,1.19565 -0.66081,2.11345 0.28244,3.25 0.72295,0.8711 1.55864,1.58382 1.85708,1.58382 0.29845,0 3.28085,-2.60196 6.62756,-5.78213 z M 141.32279,95.899023 c 4.62552,-1.59031 12.79754,-3.89578 18.16004,-5.12327 8.14706,-1.86489 9.75,-2.54551 9.75,-4.13992 0,-1.04946 -0.60878,-2.14172 -1.35285,-2.42725 -2.77825,-1.06611 -33.85311,7.36214 -37.48846,10.16778 -0.60952,0.47041 0.95278,4.41413 1.74866,4.41413 0.42491,0 4.55708,-1.30116 9.18261,-2.89147 z m 46.91055,233.641467 c 4.42959,-3.02359 6.99949,-8.15803 6.99949,-13.9844 v -4.7656 h 36.5 36.5 l 0.005,4.75 c 0.006,5.55276 3.06147,11.33676 7.55281,14.29743 2.93311,1.93349 2.79932,1.93941 -43.95581,1.94598 l -46.89789,0.007 3.29628,-2.25 z m 108,0 c 4.42959,-3.02359 6.99949,-8.15803 6.99949,-13.9844 v -4.7656 h 21.41821 c 11.78002,0 22.13002,-0.27314 23,-0.60699 1.11338,-0.42724 1.58179,-1.92035 1.58179,-5.04215 v -4.43517 l 4.75,2.73593 c 13.76419,7.92798 39.97755,23.80174 41.5,25.13073 0.9625,0.84019 1.75,1.90788 1.75,2.37264 0,0.46475 -23.46655,0.84501 -52.14788,0.84501 h -52.14789 z m 11.13789,-46.62886 2.02756,-4.87886 7.91702,4.48549 c 4.35436,2.46702 7.91702,4.66251 7.91702,4.87886 0,0.21635 -4.47506,0.39337 -9.94458,0.39337 h -9.94458 z m -43.1384,-20.19446 c 0,-6.767 0.31791,-8.99114 1.25069,-8.75 1.76815,0.45709 31.74931,16.88928 31.74931,17.40127 0,0.23213 -7.425,0.42205 -16.5,0.42205 h -16.5 z M 223.9638,73.134553 c 0.67703,-0.27392 2.02703,-0.29059 3,-0.0371 0.97297,0.25355 0.41903,0.47767 -1.23097,0.49804 -1.65,0.0204 -2.44606,-0.18706 -1.76903,-0.46098 z"
       id="path3714"
       inkscape:connector-curvature="0" />
    <path
       style="fill:#ffffff;fill-opacity:1;stroke:#ffffff;stroke-width:1.1395247;stroke-opacity:1"
       d="m 169.017,329.60679 c -4.49726,-2.74201 -8.24109,-8.56453 -8.24688,-12.8258 l -0.004,-3.1337 h -9.68596 -9.68596 v -13.65788 -13.65789 l 6.15756,-12.83606 c 8.70886,-18.15451 9.10359,-18.44535 25.66465,-18.91005 17.80135,-0.49951 17.17735,-1.17846 17.17735,18.69015 v 15.30219 h 10.82548 10.82549 v -14.81382 -14.81382 h 6.12771 6.12772 l 7.3315,-8.26155 c 7.55888,-8.51779 15.16104,-20.82226 43.1225,-69.79589 21.33916,-37.37486 33.98498,-58.72068 36.45455,-61.53433 6.21194,-7.07745 37.56586,-63.592082 37.60723,-67.786048 0.0348,-3.52833 7.29846,-13.689964 9.78574,-13.689964 3.35843,0 20.72814,8.845552 21.98638,11.196592 0.68522,1.280331 1.24584,6.946398 1.24584,12.59126 0,6.301288 0.4891,10.565665 1.26696,11.04641 1.73903,1.074776 0.31516,11.114738 -2.47028,17.418429 -2.17299,4.917658 -2.17231,4.98842 0.0751,7.845465 4.57256,5.813066 1.56989,12.498866 -5.04076,11.223836 -3.67668,-0.70913 -7.5053,-4.33061 -7.5053,-7.0992 0,-1.20601 0.84161,-0.99493 3.31024,0.8302 1.82064,1.34605 3.87178,2.10032 4.55809,1.67615 1.86469,-1.15244 1.50562,-5.194811 -0.46142,-5.194811 -0.94011,0 -1.70929,-0.83685 -1.70929,-1.859666 0,-1.022815 -1.01395,-3.500274 -2.25323,-5.505463 -3.20389,-5.183994 -5.71082,-15.501347 -4.38267,-18.036991 1.24337,-2.373794 1.5271,-13.136116 0.37638,-14.27628 -2.43195,-2.409611 -23.28458,34.428642 -43.74659,77.282711 -3.14219,6.58076 -17.0318,32.16634 -30.86578,56.85686 -13.834,24.69052 -24.84309,45.20197 -24.46465,45.58098 0.37844,0.37903 7.36517,0.8702 15.52604,1.0915 l 14.83797,0.40235 6.13887,12.70218 c 3.37638,6.9862 6.14359,13.84425 6.14934,15.2401 0.006,1.39586 -1.2715,5.94378 -2.83835,10.10651 -1.56684,4.16273 -2.84881,8.02033 -2.84881,8.57245 0,0.55212 9.74294,1.00385 21.65097,1.00385 h 21.65097 v 9.45806 c 0,5.83689 -0.52355,9.98159 -1.36743,10.82548 -0.96626,0.96626 -7.63196,1.36743 -22.72068,1.36743 h -21.35323 l -0.78756,5.41274 c -1.58508,10.89398 -6.99156,16.2297 -16.44496,16.2297 -9.58275,0 -17.08031,-7.37069 -17.08861,-16.79946 l -0.004,-4.84298 h -36.87582 -36.87583 l -0.69187,5.84175 c -0.38053,3.21297 -1.50539,7.08334 -2.49969,8.60084 -4.58385,6.99584 -15.7586,9.3875 -23.06049,4.93548 z m 127.84124,-58.22776 c 0.3698,-0.37158 -0.73984,-4.60206 -2.46585,-9.40108 l -3.1382,-8.72546 h -13.96555 -13.96556 v 9.77002 9.77003 l 16.43141,-0.36895 c 9.03727,-0.20292 16.73396,-0.67297 17.10375,-1.04456 z"
       id="path3680"
       inkscape:connector-curvature="0" />
    <path
       style="fill:#ffffff;fill-opacity:1;stroke:#ffffff;stroke-width:1.1395247;stroke-opacity:1"
       d="m 510.03017,328.85501 c -7.65683,-1.80858 -20.34576,-6.63345 -24.6256,-9.36368 -10.99729,-7.01547 -19.3282,-19.25747 -23.15499,-34.02554 -2.55362,-9.85475 -2.60764,-73.03195 -0.0708,-82.77164 5.45372,-20.93823 18.96166,-34.94838 39.87469,-41.3572 6.2671,-1.92055 11.82513,-2.09525 66.66219,-2.09525 55.67276,0 60.26005,0.14935 66.09243,2.15174 19.30663,6.62842 30.30687,16.82264 37.32074,34.58613 3.03862,7.6957 3.04216,7.7417 3.46543,44.91531 0.3597,31.59179 0.14414,38.3036 -1.4273,44.44147 -5.31357,20.75406 -16.74906,33.1735 -37.88579,41.14559 -6.44538,2.43098 -7.98387,2.49463 -65.28646,2.70053 -32.27703,0.11598 -59.71109,-0.0313 -60.96456,-0.32746 z M 618.65285,282.8954 c 8.78706,-6.36532 9.32164,-8.64144 9.29309,-39.56836 -0.0294,-31.79733 -0.65769,-34.42786 -9.45491,-39.58338 l -5.13121,-3.00709 -46.05257,0.33377 -46.05257,0.33378 -4.07967,2.79672 c -7.99458,5.48048 -8.22697,6.49415 -8.63301,37.6564 -0.35573,27.30105 -0.30551,28.03116 2.27148,33.02014 3.34519,6.47619 8.32146,9.34575 17.91039,10.32795 4.13345,0.42339 25.00135,0.84261 46.37311,0.93159 l 38.85774,0.16178 z"
       id="path3682"
       inkscape:connector-curvature="0" />
    <path
       style="fill:#ffffff;fill-opacity:1;stroke:#ffffff;stroke-width:1.1395247;stroke-opacity:1"
       d="m 698.86492,245.8036 c 0.28439,-74.01916 0.54604,-85.07539 2.03562,-86.01666 1.03296,-0.65272 32.44984,-1.08701 79.39926,-1.09755 l 77.68996,-0.0174 9.17401,3.24642 c 10.57451,3.74203 16.7497,7.70198 22.89186,14.67985 9.14103,10.38476 11.31803,18.28247 12.1776,44.17782 0.75179,22.64887 -0.53857,33.32944 -5.24851,43.44253 -5.85428,12.57019 -14.41221,19.88369 -28.89973,24.69734 -6.60738,2.19539 -10.33192,2.38404 -55.66022,2.81919 l -48.57899,0.46636 -5.44847,-14.06174 c -2.99666,-7.73396 -6.48208,-16.36928 -7.74537,-19.1896 l -2.29691,-5.12786 -0.83692,5.69762 c -0.46031,3.1337 -0.88184,20.44023 -0.93675,38.45896 l -0.0998,32.76133 h -23.97147 -23.97147 z m 147.89478,2.26353 c 6.34248,-3.7157 7.40691,-7.07186 7.40691,-23.35409 0,-11.69601 -0.36261,-14.84858 -1.99417,-17.33766 -3.91889,-5.9786 -3.63844,-5.9468 -55.66011,-6.31218 l -48.53808,-0.34093 -0.74636,12.19832 c -0.4105,6.70907 -0.74636,18.04134 -0.74636,25.18282 v 12.98451 l 48.14492,-0.34212 c 46.15333,-0.32797 48.30989,-0.43878 52.13325,-2.67867 z"
       id="path3684"
       inkscape:connector-curvature="0" />
    <path
       style="fill:#ffffff;fill-opacity:1;stroke:#ffffff;stroke-width:1.1395247;stroke-opacity:1"
       d="m 941.41074,329.6436 -18.73167,-0.61272 -0.9548,-3.69221 c -0.52514,-2.03073 -0.81326,-39.86756 -0.64025,-84.08186 0.27384,-69.98592 0.53575,-80.52944 2.02383,-81.46981 2.79207,-1.76441 191.70565,-1.46309 193.93855,0.30935 2.3069,1.83105 3.5848,21.07242 2.5069,37.74498 l -0.7642,11.8208 -21.2076,7.7548 c -11.6642,4.26514 -21.8486,7.9744 -22.632,8.2428 -1.0833,0.37114 -1.4244,-2.54276 -1.4244,-12.16869 v -12.65669 h -52.4181 -52.41816 v 12.53477 12.53478 h 40.45316 40.4531 v 17.09286 17.09287 h -33.4846 -33.48455 l -5.54415,-14.15819 c -3.04928,-7.78701 -5.90378,-14.51373 -6.34334,-14.94828 -1.68141,-1.66228 -2.11301,5.44618 -1.80182,29.67624 l 0.32196,25.06954 74.354,0.29313 74.354,0.29313 v 22.21248 22.21248 l -78.9121,-0.24192 c -43.40166,-0.13306 -87.34135,-0.51765 -97.64376,-0.85464 z"
       id="path3686"
       inkscape:connector-curvature="0" />
    <path
       style="fill:#ffffff;fill-opacity:1;stroke:#ffffff;stroke-width:1.1395247;stroke-opacity:1"
       d="m 1141.007,245.80364 c 0.2787,-74.01964 0.5395,-85.07639 2.0291,-86.02473 1.0256,-0.65296 18.1065,-0.97802 42.7051,-0.81271 l 40.9958,0.2755 4.162,6.88384 c 5.1986,8.5984 21.4919,38.75565 44.9179,83.13861 23.2556,44.06019 22.4098,42.73217 27.2148,42.73217 2.4614,0 4.1018,-0.65073 4.5438,-1.80248 0.3804,-0.99137 0.6917,-30.98936 0.6917,-66.66219 v -64.85971 h 21.6791 21.6792 l -0.3131,84.80009 c -0.1722,46.64005 -0.7404,85.2272 -1.2626,85.74923 -1.1394,1.13887 -75.3002,1.25007 -79.4079,0.11907 -3.581,-0.98598 -8.5298,-9.32979 -46.1426,-77.79713 -15.4936,-28.20324 -28.9593,-52.17599 -29.9237,-53.27278 -2.3841,-2.7111 -7.8393,-2.58843 -9.337,0.20997 -0.7736,1.4455 -1.1796,24.5858 -1.1796,67.23195 v 65.02782 h -21.6859 -21.6858 z"
       id="path3688"
       inkscape:connector-curvature="0" />
  </g>
  <g
     inkscape:groupmode="layer"
     id="layer1"
     inkscape:label="Layer 1"
     style="display:inline;opacity:1">
    <path
       style="fill:#333333;fill-opacity:1"
       d="m 168.75321,330.50366 c -4.60361,-2.60735 -8.48004,-8.7444 -8.50393,-13.46317 l -0.0164,-3.25 h -9.5 -9.5 v -14.36005 -14.36005 l 6.46987,-13.38995 c 8.58489,-17.76716 8.76925,-17.88995 26.86112,-17.88995 17.5528,0 16.66901,-0.9983 16.66901,18.82874 v 15.17126 h 10 10 v -14.5 -14.5 l 6.25,-0.0494 6.25,-0.0494 8.27508,-9.20057 c 7.66268,-8.51967 10.80788,-13.6542 42.5,-69.38101 18.8237,-33.09925 34.94378,-60.37667 35.82239,-60.61649 2.33073,-0.6362 39.31361,-65.691967 38.05822,-66.947367 -1.31399,-1.31399 -0.59313,-3.09336 4.05352,-10.00569 2.53027,-3.764 4.5495,-5.75 5.84622,-5.75 2.30586,0 22.09248,9.70969 23.17926,11.37453 0.40408,0.61901 0.74158,6.25086 0.75,12.51523 0.0124,9.24767 0.31455,11.60857 1.60641,12.5532 1.45081,1.06086 1.43169,1.9053 -0.21691,9.57716 -1.08176,5.03401 -2.58522,9.19091 -3.74285,10.34854 -1.91311,1.91311 -1.90506,1.95652 0.71692,3.86649 2.87082,2.09125 3.61726,7.092247 1.61656,10.830587 -2.30576,4.30828 -13.96482,1.39956 -13.96482,-3.48402 0,-0.78002 -0.27314,-2.13002 -0.60699,-3 -0.92368,-2.407077 1.20782,-1.890047 4.08994,0.99208 2.923,2.92299 4.8689,2.77634 5.3366,-0.4022 0.24018,-1.63227 -0.19448,-2.171667 -1.75,-2.171667 -1.55997,0 -2.06955,-0.63765 -2.06955,-2.58971 0,-1.42433 -0.84908,-3.33683 -1.88684,-4.25 -1.03776,-0.91316 -2.82757,-5.23612 -3.97734,-9.60659 -1.84988,-7.03171 -1.92046,-8.13419 -0.61316,-9.57874 0.97112,-1.07307 1.47734,-3.77218 1.47734,-7.87702 0,-5.36697 -0.24168,-6.19804 -1.71966,-5.91341 -2.48276,0.47813 -38.13088,65.146467 -37.55947,68.135637 0.30365,1.58842 -8.55167,18.17505 -30.14546,56.46455 -16.81648,29.8185 -30.57541,54.44042 -30.57541,54.71537 0,0.27495 6.6375,0.5068 14.75,0.51522 8.1125,0.008 15.25966,0.34592 15.88258,0.75 1.56115,1.0127 13.36742,26.09565 13.36742,28.39969 0,1.02517 -1.53624,5.67376 -3.41387,10.33021 l -3.41388,8.46627 21.66388,0.26926 21.66387,0.26926 0.28684,10.41821 c 0.21094,7.66142 -0.0537,10.63427 -1,11.23469 -0.70776,0.44906 -11.02025,0.82337 -22.91665,0.83179 l -21.62981,0.0153 -0.42065,5.8154 c -0.50343,6.95987 -3.23271,11.33431 -8.86411,14.20724 -11.82833,6.03436 -25.95562,-2.32615 -25.95562,-15.3605 v -4.66214 h -36.37986 -36.37981 l -0.42065,5.8154 c -0.28524,3.94347 -1.15576,6.84778 -2.7044,9.02264 -4.99031,7.00824 -15.8624,9.2546 -23.59495,4.87513 z m 128.22826,-59.96317 c -0.25594,-0.6875 -1.75588,-4.7375 -3.33321,-9 l -2.86786,-7.75 h -13.27378 -13.27379 v 9 9 h 16.60699 c 12.86711,0 16.50219,-0.2815 16.14165,-1.25 z m 215.75136,59.19327 c -9.20517,-1.34325 -21.99027,-5.81423 -28.31406,-9.90149 -10.85543,-7.0162 -17.98717,-17.42898 -22.42551,-32.7426 -2.15563,-7.43758 -2.26043,-9.4219 -2.26043,-42.79918 0,-30.94624 0.21543,-35.81075 1.86,-42 5.87233,-22.10017 18.83777,-35.22671 41.18507,-41.69684 7.89317,-2.28528 8.40133,-2.30316 65.45493,-2.30316 57.07316,0 57.55913,0.0171 65.46489,2.30589 17.04939,4.93593 28.79416,13.96593 35.44347,27.25085 6.92341,13.83255 7.59164,18.80081 7.59164,56.44326 0,28.39713 -0.25372,34.08148 -1.81901,40.75358 -5.30334,22.60567 -18.95073,36.45443 -42.33904,42.96374 -7.55687,2.10319 -9.7687,2.19015 -60.84195,2.39201 -29.15,0.11522 -55.7,-0.18451 -59,-0.66606 z m 105.27282,-46.89023 c 3.19159,-1.82777 4.96292,-3.85215 7,-8 l 2.72718,-5.55304 v -26.52413 c 0,-26.43875 -0.008,-26.54001 -2.53919,-31.46081 -1.97194,-3.83386 -3.64087,-5.50393 -7.47076,-7.47587 L 612.7913,201.29049 570.44166,200.99 c -36.01661,-0.25555 -43.15127,-0.0675 -47.71017,1.25786 -6.23404,1.81228 -10.51657,5.65617 -12.43521,11.16154 -1.87222,5.37218 -2.71568,48.85392 -1.08906,56.14268 1.93003,8.64825 7.41477,13.58938 16.92857,15.25072 2.52837,0.44151 23.27204,0.73186 46.09704,0.64522 l 41.5,-0.15753 z m 80.22718,-36.89805 c 0,-81.66168 0.0703,-84.90862 1.87327,-86.5403 1.73356,-1.56885 7.71847,-1.67284 80.25,-1.3943 l 78.37673,0.30099 7,2.35319 c 10.79475,3.62887 16.39113,6.85654 22.52609,12.99177 11.46036,11.46086 14.98328,23.90734 14.95655,52.8415 -0.0199,21.51881 -1.2147,29.04309 -6.31424,39.76347 -5.80204,12.1972 -15.1814,19.53635 -30.34388,23.74344 -7.42112,2.05912 -10.27956,2.19041 -55.44398,2.54661 l -47.61946,0.37556 -3.98877,-10.31846 c -2.19383,-5.67515 -5.47992,-14.25596 -7.30242,-19.06846 -1.8225,-4.8125 -3.68629,-8.75 -4.14176,-8.75 -0.45547,0 -0.82813,17.1 -0.82813,38 v 38 h -24.5 -24.5 z m 147.82516,2.03634 c 6.59448,-3.51997 8.13092,-7.80779 8.13092,-22.69133 0,-14.61243 -1.53196,-19.07452 -7.57922,-22.07586 -3.66187,-1.81744 -6.51101,-1.92414 -51.37686,-1.92414 h -47.5 l -0.2676,24.81201 -0.26761,24.81202 47.26761,-0.31202 c 47.17239,-0.31138 47.27631,-0.31666 51.59276,-2.62068 z m 76.17484,80.80867 c -1.96781,-1.96781 -2,-3.33333 -2,-84.84501 0,-78.98891 0.0851,-82.92205 1.82874,-84.5 1.67507,-1.51592 9.93893,-1.65499 98.34503,-1.65499 92.2334,0 96.5897,0.0812 98.1712,1.82874 1.4435,1.59502 1.655,4.90428 1.655,25.89301 0,21.98565 -0.1512,24.12459 -1.75,24.76263 -4.3507,1.7362 -44.4314,16.51562 -44.7891,16.51562 -0.2206,0 -0.5271,-5.7375 -0.681,-12.75 l -0.2799,-12.75 h -51.5 -51.49997 l -0.2808,12.25 -0.28076,12.25 h 40.53073 40.5308 v 17.51313 17.51313 l -34.1044,-0.26313 -34.10427,-0.26313 -5.5165,-14.75 c -3.034,-8.1125 -5.9193,-14.75 -6.4117,-14.75 -0.5116,0 -0.7812,11.67717 -0.6292,27.25 l 0.2661,27.25 74.24997,0.25641 74.25,0.2564 v 22.4936 22.49359 h -97 c -95.66664,0 -97.02746,-0.0275 -98.99997,-2 z m 217.99997,-82.84501 c 0,-80.92648 0.084,-84.92145 1.8287,-86.5 1.6386,-1.48286 6.0572,-1.65499 42.4843,-1.65499 h 40.6554 l 2.9467,2.75 c 1.8088,1.68812 15.758,27.07661 36.1251,65.75 18.2481,34.65 33.6343,63.5625 34.1915,64.25 1.2907,1.59237 6.9927,1.62565 8.5683,0.05 0.909,-0.90902 1.2,-17.15556 1.2,-67 v -65.8 h 22 22 v 84.92857 c 0,75.87446 -0.1675,85.0961 -1.5714,86.5 -1.3748,1.37482 -6.4483,1.57143 -40.5497,1.57143 -31.5314,0 -39.4976,-0.26859 -41.6969,-1.40586 -2.1272,-1.10006 -10.3105,-15.29303 -37.6214,-65.25 -19.1965,-35.11428 -35.5705,-64.63164 -36.3867,-65.59414 -2.0672,-2.43794 -7.7972,-2.32241 -9.1387,0.18426 -0.6832,1.27648 -1.0352,24.06088 -1.0352,67 v 65.06574 h -22 -22 z m 312,19.84501 v -65 l -36.25,-0.0188 -36.25,-0.0188 -7.75,-20.32923 c -4.2625,-11.18108 -7.75,-20.85132 -7.75,-21.48944 0,-0.87513 28.7566,-1.09676 117.0365,-0.90199 102.7502,0.22669 117.1535,0.44131 117.9945,1.75821 0.5612,0.87873 0.8567,11.56874 0.7135,25.81008 l -0.2445,24.31008 -22.5,8.42244 c -12.375,4.63234 -22.8241,8.43031 -23.2201,8.43992 -0.3961,0.01 -0.8461,-5.72002 -1,-12.73252 l -0.2799,-12.75 -25.75,-0.26688 -25.75,-0.26688 v 65.01688 65.01688 h -24.5 -24.5 v -65 z m 164,-19.84501 c 0,-80.92648 0.084,-84.92145 1.8287,-86.5 1.668,-1.50952 8.458,-1.65346 77.25,-1.63763 82.8768,0.0191 82.8252,0.0158 96.0166,6.09614 11.8354,5.4553 20.0311,16.10006 23.5809,30.62757 2.3749,9.7192 2.3982,40.28481 0.037,49.05233 -4.9059,18.21978 -16.1045,29.36093 -33.9445,33.7704 -3.4883,0.86218 -13.2459,1.80879 -21.9971,2.134 l -15.7278,0.58447 5.8014,6.60887 c 9.2963,10.59021 34.1543,41.9393 34.1543,43.07289 0,0.69101 -9.2403,1.0184 -27.75,0.98322 l -27.75,-0.0528 -30.5,-41.91559 c -16.775,-23.05358 -30.8375,-41.92984 -31.25,-41.94725 -0.412,-0.0174 -0.7495,18.86839 -0.7495,41.96839 v 42 h -24.5 -24.5 z m 144.8288,-5.47141 c 4.7868,-2.61202 6.1712,-6.80339 6.1712,-18.68358 0,-11.88019 -1.3844,-16.07156 -6.1712,-18.68358 -3.0543,-1.66665 -7.0735,-1.84025 -48.7457,-2.10538 -36.2238,-0.23048 -45.5824,-0.0281 -46.2347,1 -0.4498,0.70893 -0.8247,10.19347 -0.8331,21.07676 l -0.015,19.7878 46.25,-0.2878 c 42.479,-0.26433 46.5214,-0.4359 49.5788,-2.10422 z m 64.1712,89.46332 c 0,-1.48389 87.6651,-168.11931 89.5296,-170.17965 1.7053,-1.88427 3.2428,-1.96725 36.4511,-1.96725 h 34.6707 l 2.071,2.25 c 2.4432,2.65434 88.2776,167.32905 88.2776,169.36198 0,1.17151 -11.5318,1.38802 -73.9282,1.38802 h -73.9281 l -1.9681,-5.25 c -1.0825,-2.8875 -4.2648,-11.25147 -7.0719,-18.58661 -2.807,-7.33513 -5.1037,-14.43652 -5.1037,-15.78086 v -2.44425 l 43.0004,0.28086 c 23.6502,0.15447 43.0002,-0.0609 43,-0.47864 -2e-4,-0.41773 -2.1379,-4.6664 -4.7504,-9.44149 -2.6125,-4.77509 -12.85,-24.68331 -22.75,-44.2405 -17.3145,-34.20433 -18.1142,-35.56843 -21,-35.81903 -1.65,-0.14328 -3.481,0.0817 -4.0689,0.5 -0.5879,0.41829 -15.6308,30.12302 -33.4286,66.01052 l -32.3596,65.25 h -28.3215 c -15.5768,0 -28.3214,-0.38389 -28.3214,-0.8531 z m 265,-83.99191 c 0,-80.92648 0.084,-84.92145 1.8287,-86.5 1.6386,-1.48286 6.0572,-1.65499 42.4843,-1.65499 h 40.6554 l 2.9467,2.75 c 1.8088,1.68812 15.758,27.07661 36.1251,65.75 18.2481,34.65 33.6343,63.5625 34.1915,64.25 1.2907,1.59237 6.9927,1.62565 8.5683,0.05 0.909,-0.90902 1.2,-17.15556 1.2,-67 v -65.8 h 22 22 v 84.92857 c 0,75.87446 -0.1675,85.0961 -1.5714,86.5 -1.3748,1.37482 -6.4483,1.57143 -40.5497,1.57143 -31.5314,0 -39.4976,-0.26859 -41.6969,-1.40586 -2.1272,-1.10006 -10.3105,-15.29303 -37.6214,-65.25 -19.1965,-35.11428 -35.5705,-64.63164 -36.3867,-65.59414 -2.0672,-2.43794 -7.7972,-2.32241 -9.1387,0.18426 -0.6832,1.27648 -1.0352,24.06088 -1.0352,67 v 65.06574 h -22 -22 z m 233,62.38194 v -22.53693 h 71.8892 c 84.4608,0 76.6108,1.21688 76.6108,-11.87593 0,-5.95965 -0.4052,-8.4578 -1.5588,-9.61147 -1.1784,-1.17834 -15.2137,-3.26955 -57.5,-8.5673 -30.7677,-3.85466 -58.6412,-7.6768 -61.9412,-8.49366 -8.761,-2.16863 -17.9754,-6.99216 -21.4847,-11.24678 -6.3217,-7.66415 -7.4625,-12.6639 -7.4625,-32.70486 0,-16.56207 0.188,-18.47176 2.3536,-23.90548 3.2097,-8.05352 10.6934,-15.58689 18.5936,-18.71717 l 6,-2.37735 86.5228,-0.27635 c 74.1589,-0.23686 86.8054,-0.0699 88.5,1.16811 1.8564,1.35623 1.9772,2.67579 1.9772,21.60585 v 20.16141 l -22.9553,8.42049 c -12.6254,4.63127 -23.3129,8.42049 -23.75,8.42049 -0.4371,0 -0.7947,-4.95 -0.7947,-11 v -11 h -48.8892 c -56.0287,0 -52.9864,-0.48401 -53.8275,8.56357 -0.5567,5.98919 0.9043,10.17984 3.9488,11.32638 1.2473,0.46974 27.2429,4.31527 57.7679,8.54562 57.5812,7.97995 65.4202,9.32965 72.5797,12.49664 6.1527,2.72167 12.8275,9.30362 15.557,15.34074 2.2595,4.99745 2.3633,6.21538 2.3633,27.72705 v 22.5 l -2.8795,6.23431 c -3.2184,6.968 -10.445,14.44675 -16.3917,16.96363 -11.4753,4.85685 -8.2933,4.69544 -99.4788,5.04614 l -85.75,0.32979 z M 127.99365,256.59764 c -8.62534,-6.76893 -15.70008,-12.81455 -15.72163,-13.43471 -0.0215,-0.62015 0.61655,-1.67176 1.418,-2.33691 1.19846,-0.99463 4.20603,0.89237 16.93855,10.62755 8.51474,6.51031 15.509,12.31341 15.5428,12.89579 0.0338,0.58238 -0.51381,1.8456 -1.21691,2.80715 -1.16097,1.58772 -2.71867,0.61798 -16.96081,-10.55887 z M 89.038519,224.43856 c -4.62591,-4.70156 -9.20684,-10.69022 -12.12581,-15.85211 -4.28818,-7.58317 -4.54546,-8.40336 -2.99443,-9.54596 2.5678,-1.89163 3.09364,-1.60336 5.43032,2.97691 3.0856,6.04827 9.13367,13.97904 15.56549,20.41086 l 5.562711,5.56271 -2.001861,2.00187 -2.00186,2.00186 z m -23.15516,-45.34462 c -1.53561,-9.29279 -0.44752,-20.69772 3.014,-31.59134 1.33019,-4.1862 1.79245,-4.70468 3.67843,-4.12577 3.16346,0.97104 3.17962,1.04216 1.40521,6.18637 -2.96737,8.60272 -3.96649,16.11239 -3.23824,24.33935 0.45694,5.16198 0.34495,7.88794 -0.32405,7.88794 -0.56226,0 -1.67132,0.24905 -2.46457,0.55345 -1.04602,0.4014 -1.61495,-0.49152 -2.07078,-3.25 z m 16.27991,-50.88727 c -0.94325,-1.13655 -1.02301,-2.05435 -0.28244,-3.25 1.86291,-3.00764 14.01434,-12.56952 22.382891,-17.61295 7.84419,-4.72742 8.26939,-4.86306 9.58864,-3.05887 0.75926,1.03834 1.36769,2.13939 1.35206,2.44677 -0.0156,0.30738 -4.17812,3.01941 -9.25,6.02674 -5.07186,3.00733 -11.959801,8.06983 -15.306511,11.25 -3.34671,3.18017 -6.32911,5.78213 -6.62756,5.78213 -0.29844,0 -1.13413,-0.71272 -1.85708,-1.58382 z M 130.70891,96.715133 c -0.36228,-1.14145 -0.5051,-2.19389 -0.31739,-2.33877 3.63535,-2.80564 34.71021,-11.23389 37.48846,-10.16778 0.74407,0.28553 1.35285,1.37779 1.35285,2.42725 0,1.59441 -1.60294,2.27503 -9.75,4.13992 -5.3625,1.22749 -13.53452,3.53297 -18.16004,5.12327 -10.03194,3.4491 -9.78425,3.43005 -10.61388,0.81611 z m 56.70396,-13.63803 0.31996,-2.78661 18,-3.14484 c 28.46983,-4.97406 25.5,-4.74877 25.5,-1.93436 0,2.98526 0.76769,2.75188 -21.5,6.53597 -9.9,1.68237 -19.04398,3.29682 -20.31996,3.58766 -2.04726,0.46663 -2.28234,0.20125 -2,-2.25782 z"
       id="path3712"
       inkscape:connector-curvature="0" />
    <path
       style="fill:#ffffff;fill-opacity:1;stroke:#ffffff;stroke-width:1.1395247;stroke-opacity:1"
       d="m 168.74349,330.03458 c -4.26993,-2.67462 -7.00752,-6.92446 -7.67733,-11.91825 l -0.59942,-4.46904 h -9.53592 -9.53592 v -14.33028 -14.33029 l 6.93974,-13.61186 c 5.13851,-10.07887 7.78572,-14.04932 10.19913,-15.29735 4.37,-2.25982 28.70301,-2.40793 30.5471,-0.18594 0.72414,0.87252 1.37808,7.90061 1.56393,16.80799 l 0.31942,15.30843 h 10.25572 10.25572 l 0.31893,-14.52894 0.31893,-14.52894 h 6.03167 6.03167 l 7.11933,-8.26155 c 7.55268,-8.76444 16.26904,-22.74917 38.88563,-62.38898 23.78854,-41.69388 34.3139,-59.55614 39.28083,-66.66219 11.91213,-17.04242 39.32574,-66.343534 39.32574,-70.724135 0,-2.426422 6.6657,-12.721308 8.75615,-13.523488 1.58599,-0.608601 22.16799,9.176908 23.41085,11.130457 0.46437,0.729911 0.85217,5.789862 0.86176,11.244335 0.009,5.454473 0.6265,11.253952 1.37091,12.887732 1.57516,3.45712 -0.34084,15.248967 -3.19797,19.681481 -1.51909,2.356703 -1.45729,2.883545 0.65307,5.566418 2.57993,3.27985 2.93546,6.23442 1.15135,9.56805 -2.21994,4.148 -11.9787,1.8079 -13.22861,-3.17215 -0.95103,-3.78918 -0.0887,-4.1452 3.39777,-1.40276 1.65648,1.30298 3.52951,2.04908 4.1623,1.65799 1.64356,-1.01578 1.42549,-5.128748 -0.27387,-5.165296 -1.53266,-0.03297 -6.85258,-11.398884 -8.72897,-18.649277 -0.73827,-2.852719 -0.75804,-5.164457 -0.0554,-6.477353 1.40864,-2.6321 1.42675,-14.726098 0.022,-14.726098 -2.27561,0 -24.81971,39.401234 -34.88194,60.964564 -8.91748,19.11016 -14.81476,30.19195 -40.023,75.20863 l -24.24802,43.30194 15.62358,1.13952 15.62358,1.13953 2.50605,4.5581 c 1.37834,2.50695 4.27894,8.70363 6.44578,13.77039 l 3.93972,9.21228 -2.83272,7.88059 c -1.558,4.33432 -3.10035,8.77795 -3.42745,9.87474 -0.55188,1.8505 0.97775,1.99417 21.2319,1.99417 h 21.82664 l -0.32764,10.5406 -0.32765,10.54061 -22.37726,0.30853 -22.37727,0.30855 -0.79547,6.3667 c -0.61825,4.94833 -1.62047,7.26693 -4.49869,10.40762 -3.24363,3.5394 -4.52796,4.10932 -10.34828,4.59199 -11.22971,0.93125 -17.61231,-4.21983 -18.76742,-15.14625 l -0.60233,-5.69762 -36.58864,-0.30046 -36.58864,-0.30044 -0.63798,6.18139 c -0.76507,7.41282 -3.06761,11.26509 -8.18458,13.69326 -4.84248,2.29791 -14.01108,2.27841 -17.70857,-0.0376 z m 128.23436,-58.77744 c 0.24792,-0.24794 -0.95883,-4.27222 -2.68169,-8.94285 l -3.13248,-8.49204 -12.96911,-0.32397 c -7.13301,-0.17819 -13.31393,0.0782 -13.73537,0.56976 -0.42145,0.49155 -0.53329,4.93791 -0.24853,9.88079 l 0.51772,8.98704 15.89933,-0.61397 c 8.74463,-0.33769 16.10219,-0.81683 16.35013,-1.06476 z"
       id="path3695"
       inkscape:connector-curvature="0" />
    <path
       style="fill:#ffffff;fill-opacity:1;stroke:#ffffff;stroke-width:1.1395247;stroke-opacity:1"
       d="m 503.3315,327.20433 c -22.19251,-6.32567 -33.4664,-16.95419 -40.03308,-37.74141 -2.77283,-8.77755 -2.83662,-9.7881 -2.83662,-44.93609 0,-39.80396 0.56156,-44.22219 7.21112,-56.7359 1.98037,-3.72682 6.05841,-9.23377 9.06231,-12.23768 6.50221,-6.50221 21.09571,-13.88985 30.94125,-15.66334 10.77052,-1.94011 113.22639,-1.58986 122.70586,0.41947 22.13937,4.69281 38.68302,20.50784 43.695,41.77055 2.5412,10.78072 2.51392,74.69217 -0.0361,84.53293 -4.25905,16.43624 -13.68726,28.4552 -27.9597,35.64269 -14.21804,7.16009 -15.93301,7.31841 -78.50445,7.24731 -52.49384,-0.0596 -56.95023,-0.21909 -64.24561,-2.29853 z m 115.15378,-44.44738 c 2.24386,-1.38678 5.05035,-4.72075 6.67846,-7.93366 2.73788,-5.40295 2.80819,-6.18548 2.80819,-31.25548 0,-31.52981 -1.04389,-35.17031 -11.63473,-40.57566 -3.93352,-2.00759 -7.2255,-2.15432 -47.29028,-2.10778 -45.13138,0.0524 -48.71998,0.40091 -54.08003,5.25169 -5.36079,4.85145 -5.90306,7.64438 -6.4259,33.09641 -0.27289,13.28473 -0.14279,26.51061 0.28913,29.39084 0.80269,5.35273 5.28921,11.7753 10.1886,14.58524 2.93146,1.68128 37.76519,2.79303 71.79246,2.29132 21.84192,-0.32204 24.12282,-0.54811 27.6741,-2.74292 z"
       id="path3697"
       inkscape:connector-curvature="0" />
    <path
       style="fill:#ffffff;fill-opacity:1;stroke:#ffffff;stroke-width:1.1395247;stroke-opacity:1"
       d="m 698.73604,247.83974 c 0.0625,-45.59523 0.47014,-84.18238 0.90594,-85.74923 l 0.79234,-2.84881 79.1128,-0.29275 c 70.87239,-0.26227 79.70969,-0.0974 84.8433,1.583 10.85597,3.55348 18.30984,8.09361 24.80387,15.10793 11.14469,12.0376 13.94458,24.08564 13.1207,56.45901 -0.44229,17.37955 -0.90826,21.64817 -2.9933,27.42098 -5.31221,14.70776 -14.78425,24.00824 -29.77054,29.23133 -7.08982,2.47098 -9.38702,2.60788 -53.66123,3.19819 -25.43988,0.33918 -47.67874,0.3603 -49.41971,0.0469 -2.89832,-0.52168 -3.71144,-1.96383 -9.63738,-17.09286 -3.5596,-9.08771 -7.00636,-17.46684 -7.65946,-18.62028 -1.48618,-2.6247 -2.68067,20.72588 -2.68671,52.52113 l -0.004,21.93585 h -23.93002 -23.93002 z m 147.58529,0.41531 c 6.51032,-3.94144 7.82124,-7.68142 7.83444,-22.35115 0.0135,-14.95877 -1.18727,-19.02061 -6.58876,-22.28846 -3.43829,-2.08012 -6.51178,-2.23223 -51.80008,-2.5637 l -48.14492,-0.35237 -0.005,10.6081 c -0.003,5.83445 -0.34028,17.18973 -0.75053,25.23396 l -0.74591,14.62588 48.32569,-0.38182 c 44.94399,-0.3551 48.57402,-0.53217 51.87469,-2.53044 z"
       id="path3699"
       inkscape:connector-curvature="0" />
    <path
       style="fill:#ffffff;fill-opacity:1;stroke:#ffffff;stroke-width:1.1395247;stroke-opacity:1"
       d="m 931.65524,329.9092 c -5.76347,-0.27789 -8.37188,-0.90874 -9.40107,-2.27366 -1.85882,-2.46519 -2.09491,-163.30248 -0.24479,-166.75946 1.15211,-2.15275 3.43019,-2.20373 97.71422,-2.18669 54.1798,0.01 97.2352,0.46102 98.1314,1.02843 1.8988,1.20221 3.1955,30.39137 1.8911,42.57133 l -0.7999,7.46972 -21.7083,8.07251 c -11.9396,4.43988 -22.1417,8.07252 -22.6715,8.07252 -0.5298,0 -1.1088,-5.51246 -1.2867,-12.24989 l -0.3234,-12.24989 -51.4125,-0.29639 -51.41255,-0.29639 -0.70818,4.28472 c -0.38951,2.3566 -0.71383,8.00243 -0.72073,12.54628 l -0.0125,8.26156 h 40.45306 40.4531 v 17.10982 17.10983 l -33.7331,-0.30184 -33.73318,-0.30184 -5.80441,-14.81382 -5.80441,-14.81382 -0.99687,5.12786 c -0.95636,4.9195 -0.29324,48.78083 0.75332,49.82739 0.27928,0.27928 33.62375,0.79996 74.09895,1.15708 l 73.5912,0.64929 v 22.04315 22.04316 l -89.1678,-0.22318 c -49.04223,-0.12275 -92.75725,-0.39626 -97.14442,-0.60778 z"
       id="path3701"
       inkscape:connector-curvature="0" />
    <path
       style="fill:#ffffff;fill-opacity:1;stroke:#ffffff;stroke-width:1.1395247;stroke-opacity:1"
       d="m 1140.758,247.62905 c 0,-51.24343 0.4261,-84.2319 1.1113,-86.03412 l 1.1114,-2.92299 h 41.4442 c 38.0355,0 41.5901,0.16402 43.2175,1.99417 2.6728,3.00595 14.9455,25.37108 42.9896,78.34232 13.936,26.32302 26.0659,49.0138 26.9553,50.42396 1.7863,2.83212 7.0071,3.50283 9.3134,1.19651 1.0317,-1.03174 1.3674,-17.39675 1.3674,-66.6622 v -65.29476 h 21.6724 21.6723 l -0.3062,84.8 c -0.1685,46.64 -0.7339,85.22715 -1.2566,85.74923 -0.5226,0.52208 -18.9002,0.94923 -40.839,0.94923 h -39.8888 l -2.1977,-2.7145 c -2.7816,-3.43568 -15.6971,-26.30737 -47.2686,-83.70633 -13.7337,-24.96887 -25.9156,-45.90851 -27.0708,-46.53253 -3.5767,-1.93212 -7.2148,-0.23118 -8.01,3.74497 -0.3933,1.96669 -0.7151,31.97133 -0.7151,66.67698 v 63.10117 h -21.651 -21.651 z"
       id="path3703"
       inkscape:connector-curvature="0" />
    <path
       style="fill:#ffffff;fill-opacity:1;stroke:#ffffff;stroke-width:1.1395247;stroke-opacity:1"
       d="m 1452.9878,265.78726 v -64.95291 h -36.382 -36.3819 l -3.6397,-9.40108 c -5.7203,-14.77495 -11.3398,-30.48891 -11.3398,-31.70944 0,-1.38616 231.8358,-0.92068 233.223,0.46826 0.5221,0.52271 0.9493,11.69468 0.9493,24.8266 0,19.51771 -0.2986,24.06069 -1.6358,24.88683 -0.8997,0.55584 -10.8485,4.41564 -22.1085,8.57733 -15.9965,5.91233 -20.6802,7.23936 -21.4221,6.06948 -0.5222,-0.82349 -0.9573,-6.49691 -0.9669,-12.60761 l -0.017,-11.11037 h -26.209 -26.2091 v 64.95291 64.9529 h -23.93 -23.93 z"
       id="path3705"
       inkscape:connector-curvature="0" />
    <path
       style="fill:#ffffff;fill-opacity:1;stroke:#ffffff;stroke-width:1.1395247;stroke-opacity:1"
       d="m 131.62609,259.1115 c -16.43139,-12.76759 -19.49047,-15.7152 -17.95246,-17.29825 1.56743,-1.61333 3.06143,-0.67469 20.63402,12.96382 6.4432,5.00073 11.52857,9.65197 11.30082,10.33609 -0.97015,2.91419 -4.40604,1.4394 -13.98238,-6.00166 z"
       id="path3709"
       inkscape:connector-curvature="0" />
    <path
       style="fill:#ffffff;fill-opacity:1;stroke:#ffffff;stroke-width:1.1395247;stroke-opacity:1"
       d="m 88.838908,223.80199 c -7.453178,-8.0864 -14.792656,-19.08911 -15.082726,-22.6107 -0.08965,-1.0884 0.671085,-2.15216 1.690522,-2.36391 1.250157,-0.25968 3.01839,1.67902 5.431969,5.95565 1.968145,3.48736 7.153756,10.10453 11.52358,14.70482 7.644737,8.04791 7.864987,8.43669 5.825421,10.28247 -2.01975,1.82785 -2.462506,1.54639 -9.388766,-5.96833 z"
       id="path3711"
       inkscape:connector-curvature="0" />
    <path
       style="fill:#ffffff;fill-opacity:1;stroke:#ffffff;stroke-width:1.1395247;stroke-opacity:1"
       d="m 66.537652,181.12778 c -1.501187,-2.39637 -0.738888,-21.61805 1.134242,-28.60039 2.011313,-7.49743 3.252309,-9.28137 5.78143,-8.31086 1.510294,0.57956 1.449507,1.61607 -0.493166,8.40924 -1.468424,5.13481 -2.215788,11.26355 -2.215788,18.17052 0,8.11202 -0.370804,10.5646 -1.672793,11.06422 -0.920037,0.35305 -2.060303,0.0233 -2.533925,-0.73273 z"
       inkscape:connector-curvature="0"
       id="path3713" />
    <path
       style="fill:#ffffff;fill-opacity:1;stroke:#ffffff;stroke-width:1.1395247;stroke-opacity:1"
       d="m 82.139617,126.8621 c 0,-2.68935 8.050992,-9.90136 19.319163,-17.30594 8.70668,-5.72137 11.90399,-6.72724 12.92512,-4.06624 0.36721,0.95695 -2.42167,3.36451 -7.56988,6.53485 -4.48321,2.76082 -11.340768,7.71965 -15.239013,11.01961 -7.656896,6.48174 -9.43539,7.20135 -9.43539,3.81772 z"
       inkscape:connector-curvature="0"
       id="path3715" />
    <path
       style="fill:#ffffff;fill-opacity:1;stroke:#ffffff;stroke-width:1.1395247;stroke-opacity:1"
       d="m 131.13918,96.091665 c 0,-1.717831 1.88969,-2.803473 8.83131,-5.073663 19.16786,-6.268656 28.773,-7.850221 28.773,-4.737709 0,1.074586 -2.35485,2.321742 -6.55227,3.470155 -3.60374,0.985986 -11.49329,3.307848 -17.53233,5.159694 -12.96473,3.975584 -13.51971,4.024085 -13.51971,1.181523 z"
       inkscape:connector-curvature="0"
       id="path3717" />
    <path
       style="fill:#ffffff;fill-opacity:1;stroke:#ffffff;stroke-width:1.1395247;stroke-opacity:1"
       d="m 188.11541,82.723593 c 0,-1.473369 0.64098,-2.693112 1.42441,-2.71054 0.78342,-0.01743 10.14176,-1.518089 20.79632,-3.334803 18.05273,-3.078182 22.41147,-3.126385 20.62019,-0.228039 -0.79409,1.284871 -5.40509,2.328804 -27.74222,6.280858 l -15.0987,2.671377 z"
       inkscape:connector-curvature="0"
       id="path3719" />
    <path
       style="opacity:0.15;fill:#ffffff;fill-opacity:1;stroke:#ffffff;stroke-width:1.1395247;stroke-opacity:1"
       d="m 1616.8303,246.91019 c 0,-55.60696 0.3972,-84.57204 1.1797,-86.03411 1.148,-2.1452 3.1971,-2.20396 76.633,-2.19754 42.9947,0.004 78.3393,0.4792 82.1619,1.1052 15.2676,2.5003 27.826,11.59512 33.8683,24.52751 4.0691,8.70922 5.5562,18.15999 5.5587,35.32526 0,23.02421 -3.0971,34.08736 -12.3737,44.15124 -9.4365,10.23748 -20.5708,14.03489 -44.6452,15.22649 -8.7425,0.43274 -15.8954,1.01619 -15.8954,1.29657 0,0.28038 2.8979,3.81059 6.4399,7.84493 7.9518,9.05721 32.2378,39.47982 32.276,40.43153 0.054,1.35589 -12.2051,2.13256 -33.0183,2.0918 l -21.0812,-0.0413 -26.2091,-36.0643 c -14.415,-19.8354 -28.3208,-38.78812 -30.902,-42.11719 l -4.6929,-6.05285 -0.7073,4.27915 c -0.389,2.35353 -0.7129,21.32928 -0.7198,42.16834 l -0.013,37.88919 h -23.93 -23.9301 z m 144.5313,-5.99931 c 4.2043,-2.39602 5.8865,-8.0625 5.8817,-19.81336 -0.01,-12.86825 -1.9821,-17.16304 -8.7677,-19.04736 -6.6189,-1.83801 -91.0925,-1.64709 -92.2936,0.2086 -0.507,0.78342 -1.093,10.31001 -1.3022,21.17019 l -0.3804,19.74578 47.1009,-0.37386 c 36.5548,-0.29016 47.6965,-0.71333 49.7613,-1.88999 z"
       id="path3739"
       inkscape:connector-curvature="0" />
    <path
       style="opacity:0.15;fill:#ffffff;fill-opacity:1;stroke:#ffffff;stroke-width:1.1395247;stroke-opacity:1"
       d="m 1830.7761,329.91005 c -2.3503,-0.24584 -4.2732,-0.68174 -4.2732,-0.96866 0,-1.38801 16.0198,-32.35738 52.7098,-101.89797 27.273,-51.69202 35.3868,-66.63311 36.6559,-67.49939 0.6746,-0.46045 16.9029,-0.84504 36.063,-0.85464 l 34.8365,-0.0174 5.2264,9.40108 c 9.0337,16.24948 64.8591,123.13924 77.6062,148.59379 l 6.3626,12.70547 -15.051,0.7502 c -8.278,0.41261 -41.4461,0.59219 -73.7069,0.39907 l -58.6561,-0.35115 -6.4342,-17.09287 c -3.5388,-9.40108 -6.7699,-18.63123 -7.1802,-20.51144 l -0.746,-3.41858 40.7667,0.35723 c 22.4217,0.19648 41.847,-0.0599 43.1674,-0.56976 2.2634,-0.87397 1.1813,-3.29331 -18.9199,-42.29854 -11.7263,-22.75435 -22.4367,-42.8812 -23.8009,-44.72634 -1.576,-2.13168 -3.5021,-3.3548 -5.2829,-3.3548 -2.5676,0 -5.5498,5.53324 -35.576,66.00987 l -32.7735,66.00986 -23.3602,-0.10899 c -12.8482,-0.0599 -25.2832,-0.31013 -27.6335,-0.55599 z"
       id="path3741"
       inkscape:connector-curvature="0" />
    <path
       style="opacity:0.15;fill:#ffffff;fill-opacity:1;stroke:#ffffff;stroke-width:1.1395247;stroke-opacity:1"
       d="m 1828.8967,328.55618 c -1.4861,-0.94098 11.336,-26.51655 48.3218,-96.3849 17.9316,-33.8738 34.4003,-64.45337 36.6681,-68.0866 l 2.6673,-4.27321 h 35.0619 35.0619 l 7.5645,13.95917 c 12.719,23.47115 29.6078,55.7153 64.0129,122.21402 l 16.508,31.90669 -4.0382,0.86342 c -2.221,0.47488 -35.0803,0.73128 -73.0205,0.56976 l -68.9823,-0.29365 -6.0059,-16.52311 c -3.3032,-9.08771 -6.3594,-17.93327 -6.7916,-19.6568 l -0.7859,-3.13369 h 41.0533 c 22.5792,0 41.8209,-0.29459 42.7592,-0.65466 2.0682,-0.79363 -0.2737,-5.96601 -20.0833,-44.35657 -24.6354,-47.74279 -26.4165,-50.25828 -31.6471,-44.69499 -1.3097,1.39292 -16.5719,31.08373 -33.9161,65.97957 l -31.5349,63.447 -25.6393,0.0641 c -14.1016,0.0352 -26.3568,-0.39024 -27.2338,-0.9455 z"
       id="path3743"
       inkscape:connector-curvature="0" />
    <path
       style="opacity:0;fill:#ffffff;fill-opacity:1;stroke:#ffffff;stroke-width:1.1395247;stroke-opacity:1"
       d="m 2090.8726,246.91019 c 0,-55.60696 0.3971,-84.57204 1.1796,-86.03411 1.133,-2.11704 2.8146,-2.20414 42.5556,-2.20414 37.9987,0 41.5146,0.16277 43.0751,1.99417 3.0718,3.60507 9.6122,15.62224 55.0423,101.13281 7.9913,15.04173 15.0451,27.98958 15.6751,28.773 1.8047,2.24454 7.452,1.74433 8.8028,-0.77973 0.7733,-1.44485 1.1796,-24.40879 1.1796,-66.66219 v -64.45806 h 21.6723 21.6724 l -0.3063,84.8 c -0.1684,46.64 -0.7289,85.22257 -1.2456,85.73905 -1.2694,1.26885 -62.9722,1.88455 -73.6995,0.7354 l -8.5464,-0.91551 -5.8205,-9.68596 c -3.2012,-5.32728 -19.5118,-34.55609 -36.2458,-64.95291 -16.7339,-30.39682 -31.2628,-55.90793 -32.2865,-56.69135 -2.5245,-1.93204 -5.4542,-1.79106 -7.6116,0.36628 -1.5863,1.58631 -1.7907,9.25925 -1.7907,67.23195 v 65.44127 h -21.6509 -21.651 z"
       id="path3745"
       inkscape:connector-curvature="0" />
    <path
       style="opacity:0;fill:#ffffff;fill-opacity:1;stroke:#ffffff;stroke-width:1.1395247;stroke-opacity:1"
       d="m 2090.8726,246.91019 c 0,-55.60696 0.3971,-84.57204 1.1796,-86.03411 1.133,-2.11704 2.8146,-2.20414 42.5556,-2.20414 37.9987,0 41.5146,0.16277 43.0751,1.99417 3.0718,3.60507 9.6122,15.62224 55.0423,101.13281 7.9913,15.04173 15.0451,27.98958 15.6751,28.773 1.8047,2.24454 7.452,1.74433 8.8028,-0.77973 0.7733,-1.44485 1.1796,-24.40879 1.1796,-66.66219 v -64.45806 h 21.6723 21.6724 l -0.3063,84.8 c -0.1684,46.64 -0.7289,85.22257 -1.2456,85.73905 -1.2694,1.26885 -62.9722,1.88455 -73.6995,0.7354 l -8.5464,-0.91551 -5.8205,-9.68596 c -3.2012,-5.32728 -19.5118,-34.55609 -36.2458,-64.95291 -16.7339,-30.39682 -31.2628,-55.90793 -32.2865,-56.69135 -2.5245,-1.93204 -5.4542,-1.79106 -7.6116,0.36628 -1.5863,1.58631 -1.7907,9.25925 -1.7907,67.23195 v 65.44127 h -21.6509 -21.651 z"
       id="path3747"
       inkscape:connector-curvature="0" />
    <path
       style="opacity:1;fill:#ffffff;fill-opacity:1;stroke:#ffffff;stroke-width:1.1395247;stroke-opacity:1"
       d="m 2090.8726,246.91019 c 0,-55.60696 0.3971,-84.57204 1.1796,-86.03411 1.133,-2.11704 2.8146,-2.20414 42.5556,-2.20414 37.9987,0 41.5146,0.16277 43.0751,1.99417 3.0718,3.60507 9.6122,15.62224 55.0423,101.13281 7.9913,15.04173 15.0451,27.98958 15.6751,28.773 1.8047,2.24454 7.452,1.74433 8.8028,-0.77973 0.7733,-1.44485 1.1796,-24.40879 1.1796,-66.66219 v -64.45806 h 21.6723 21.6724 l -0.3063,84.8 c -0.1684,46.64 -0.7289,85.22257 -1.2456,85.73905 -1.2694,1.26885 -62.9722,1.88455 -73.6995,0.7354 l -8.5464,-0.91551 -5.8205,-9.68596 c -3.2012,-5.32728 -19.5118,-34.55609 -36.2458,-64.95291 -16.7339,-30.39682 -31.2628,-55.90793 -32.2865,-56.69135 -2.5245,-1.93204 -5.4542,-1.79106 -7.6116,0.36628 -1.5863,1.58631 -1.7907,9.25925 -1.7907,67.23195 v 65.44127 h -21.6509 -21.651 z"
       id="path3753"
       inkscape:connector-curvature="0" />
    <path
       style="opacity:1;fill:#ffffff;fill-opacity:1;stroke:#ffffff;stroke-width:1.1395247;stroke-opacity:1"
       d="m 1829.9268,327.03671 c 0.01,-2.01493 11.0376,-24.44865 26.7532,-54.4123 21.5763,-41.13802 50.6657,-95.64584 55.4922,-103.98163 l 4.4537,-7.69179 h 35.0226 35.0226 l 15.5957,29.34276 c 39.7715,74.82858 71.1868,136.48962 69.9497,137.29527 -0.7071,0.46046 -33.1564,0.84505 -72.1095,0.85465 l -70.824,0.0174 -1.1453,-3.13369 c -6.1665,-16.87227 -11.6124,-32.5386 -11.6124,-33.40554 0,-0.63596 14.5769,-1.1053 36.1799,-1.16491 19.899,-0.0549 38.7439,-0.44192 41.8776,-0.86005 4.8426,-0.64613 5.6482,-1.10142 5.3684,-3.03386 -0.3688,-2.54756 -22.7251,-47.33699 -34.1244,-68.36608 -12.6774,-23.3868 -14.9067,-25.05812 -20.8997,-15.66846 -1.9,2.97701 -16.8877,32.4247 -33.306,65.43931 l -29.8513,60.02657 -25.9242,0.0834 c -20.0268,0.0644 -25.9229,-0.24068 -25.9188,-1.34105 z"
       id="path3755"
       inkscape:connector-curvature="0" />
    <path
       style="opacity:1;fill:#ffffff;fill-opacity:1;stroke:#ffffff;stroke-width:1.1395247;stroke-opacity:1"
       d="m 1617.9699,245.98511 c 0,-70.04252 0.2574,-83.82918 1.5858,-84.93169 1.1741,-0.97436 22.2582,-1.23254 81.1912,-0.99417 l 79.6052,0.32198 8.2649,3.87365 c 13.5585,6.3548 22.4777,18.00946 25.3424,33.11492 1.5031,7.92571 1.475,35.46397 -0.044,43.68384 -3.4206,18.50365 -15.7877,31.1414 -34.1326,34.87957 -4.7441,0.96672 -28.2668,3.28033 -35.6101,3.50249 -1.994,0.0603 -0.464,2.70142 5.7743,9.96743 3.646,4.24659 12.1214,14.63189 18.8343,23.07845 10.3019,12.96237 11.8893,15.48228 10.179,16.15814 -1.1144,0.44041 -13.0731,0.83678 -26.5747,0.88082 l -24.5484,0.0801 -16.6771,-23.07538 c -33.229,-45.97763 -45.0257,-61.40661 -45.6687,-59.73074 -0.3464,0.90252 -1.0013,19.90311 -1.4553,42.22353 l -0.8257,40.58259 h -22.62 -22.6201 z m 137.3225,-3.65142 c 8.6907,-0.87054 10.525,-2.89332 11.984,-13.21524 1.5489,-10.9577 0.2474,-19.96236 -3.4898,-24.14502 l -3.0976,-3.46682 -19.7961,-0.98711 c -10.8878,-0.54291 -32.2186,-0.6369 -47.4018,-0.20886 l -27.6057,0.77826 -0.5435,3.57618 c -0.299,1.9669 -0.8586,11.67637 -1.2436,21.57659 l -0.7001,18.00041 43.0934,-0.66834 c 23.7013,-0.36759 45.6617,-0.92561 48.8008,-1.24005 z"
       id="path3757"
       inkscape:connector-curvature="0" />
    <path
       style="opacity:1;fill:#ffffff;fill-opacity:1;stroke:#ffffff;stroke-width:1.1395247;stroke-opacity:1"
       d="M 2323.3356,308.51943 V 286.2987 l 66.9471,-0.0832 c 36.8209,-0.0458 69.7141,-0.47622 73.096,-0.95659 8.2782,-1.17583 9.6284,-3.1038 8.7915,-12.55373 -0.3568,-4.02937 -1.0791,-7.75652 -1.6052,-8.28256 -1.4601,-1.46009 -16.0018,-3.70313 -65.1836,-10.05444 -53.3782,-6.89324 -58.5413,-7.87066 -67.4768,-12.77388 -8.332,-4.57208 -12.9833,-10.63805 -14.5533,-18.97965 -1.8661,-9.91537 -1.4635,-35.28346 0.659,-41.5124 2.4186,-7.09843 10.9661,-16.42 18.1044,-19.74409 l 5.7207,-2.66398 87.319,-0.0111 c 72.9087,-0.009 87.5346,0.24867 88.6255,1.56316 0.8992,1.08341 1.2092,7.69651 0.9942,21.20902 l -0.3124,19.63474 -22.0522,8.01268 c -17.9386,6.518 -22.2398,7.7164 -23.0579,6.42444 -0.5532,-0.87352 -1.0136,-5.85739 -1.0232,-11.07527 l -0.017,-9.48705 -48.7147,0.37085 c -35.4742,0.27006 -49.3691,0.74618 -51.1225,1.75178 -4.5789,2.62615 -4.5777,15.04301 0,17.97821 1.3591,0.87115 25.7096,4.84195 55.9637,9.12593 55.0553,7.79583 70.9921,10.6064 76.5618,13.50218 1.7627,0.91644 5.1769,3.6383 7.5872,6.04857 7.9516,7.95155 8.1119,8.60702 8.5195,34.83577 l 0.3671,23.61632 -3.7026,6.94679 c -4.385,8.22716 -11.1366,14.50646 -18.8167,17.5004 -5.068,1.9757 -10.4338,2.24552 -60.2606,3.03035 -30.0835,0.47385 -69.6962,0.90804 -88.0283,0.96488 l -33.3311,0.10334 z"
       id="path3759"
       inkscape:connector-curvature="0" />
  </g>
</svg>
